# MagicaVoxel @ Ephtracy

# group
o 

# material
mtllib bloke.mtl
usemtl palette

# normals
vn -1 0 0
vn 1 0 0
vn 0 0 1
vn 0 0 -1
vn 0 -1 0
vn 0 1 0

# texcoords
vt 0.537109 0.5
vt 0.927734 0.5
vt 0.935547 0.5

# verts
v -1.1 0 -0.6
v -1.1 0 -4.6
v -1.1 0.2 -0.8
v -1.1 0.2 -4.4
v -1.1 3.7 -0.8
v -1.1 3.7 -4.4
v -1.1 3.9 -0.6
v -1.1 3.9 -0.8
v -1.1 3.9 -0.9
v -1.1 3.9 -1
v -1.1 4 -0.8
v -1.1 4 -0.9
v -1.1 4 -1
v -1.1 4 -4.6
v -0.9 3.9 -0.7
v -0.9 3.9 -0.8
v -0.9 3.9 -0.9
v -0.9 3.9 -1
v -0.9 3.9 -4
v -0.9 3.9 -4.4
v -0.9 4 -0.7
v -0.9 4 -0.8
v -0.9 4 -0.9
v -0.9 4 -1
v -0.9 4 -4
v -0.9 4 -4.4
v -0.8 3.9 -3.1
v -0.8 3.9 -3.2
v -0.8 4 -3.1
v -0.8 4 -3.2
v -0.7 3.9 -0.6
v -0.7 3.9 -0.7
v -0.7 4 -0.6
v -0.7 4 -0.7
v -0.6 3.9 -3.1
v -0.6 3.9 -3.7
v -0.6 4 -3.1
v -0.6 4 -3.7
v -0.1 3.9 -1
v -0.1 3.9 -1.3
v -0.1 4 -1
v -0.1 4 -1.3
v 0 3.9 -1.3
v 0 3.9 -1.6
v 0 4 -1.3
v 0 4 -1.6
v 0.3 3.9 -3.4
v 0.3 3.9 -3.5
v 0.3 4 -3.4
v 0.3 4 -3.5
v 0.4 3.9 -3.3
v 0.4 3.9 -3.4
v 0.4 4 -3.3
v 0.4 4 -3.4
v 0.9 3.9 -2.8
v 0.9 3.9 -3
v 0.9 4 -2.8
v 0.9 4 -3
v 1.5 3.9 -4.3
v 1.5 3.9 -4.4
v 1.5 4 -4.3
v 1.5 4 -4.4
v 1.8 3.9 -0.8
v 1.8 3.9 -0.9
v 1.8 4 -0.8
v 1.8 4 -0.9
v 2.6 3.9 -3.4
v 2.6 3.9 -3.5
v 2.6 3.9 -4.4
v 2.6 3.9 -4.5
v 2.6 4 -3.4
v 2.6 4 -3.5
v 2.6 4 -4.4
v 2.6 4 -4.5
v 2.7 3.9 -3.2
v 2.7 3.9 -3.4
v 2.7 4 -3.2
v 2.7 4 -3.4
v 2.8 3.9 -3.1
v 2.8 3.9 -3.2
v 2.8 4 -3.1
v 2.8 4 -3.2
v -1 3.9 -4
v -1 3.9 -4.4
v -1 4 -4
v -1 4 -4.4
v -0.9 3.9 -3.1
v -0.9 3.9 -3.2
v -0.9 4 -3.1
v -0.9 4 -3.2
v -0.7 3.9 -3.1
v -0.7 3.9 -3.7
v -0.7 4 -3.1
v -0.7 4 -3.7
v -0.2 3.9 -1
v -0.2 3.9 -1.3
v -0.2 4 -1
v -0.2 4 -1.3
v -0.1 3.9 -1.3
v -0.1 3.9 -1.6
v -0.1 4 -1.3
v -0.1 4 -1.6
v 0.2 3.9 -3.4
v 0.2 3.9 -3.5
v 0.2 4 -3.4
v 0.2 4 -3.5
v 0.3 3.9 -3.3
v 0.3 3.9 -3.4
v 0.3 4 -3.3
v 0.3 4 -3.4
v 0.7 3.9 -2.8
v 0.7 3.9 -3
v 0.7 3.9 -4.3
v 0.7 3.9 -4.4
v 0.7 4 -2.8
v 0.7 4 -3
v 0.7 4 -4.3
v 0.7 4 -4.4
v 1.3 3.9 -0.8
v 1.3 3.9 -0.9
v 1.3 4 -0.8
v 1.3 4 -0.9
v 2.2 3.9 -4.5
v 2.2 3.9 -4.6
v 2.2 4 -4.5
v 2.2 4 -4.6
v 2.5 3.9 -3.4
v 2.5 3.9 -3.5
v 2.5 3.9 -4.4
v 2.5 3.9 -4.5
v 2.5 4 -3.4
v 2.5 4 -3.5
v 2.5 4 -4.4
v 2.5 4 -4.5
v 2.6 3.9 -0.6
v 2.6 3.9 -0.8
v 2.6 3.9 -3.2
v 2.6 3.9 -3.4
v 2.6 4 -0.6
v 2.6 4 -0.8
v 2.6 4 -3.2
v 2.6 4 -3.4
v 2.7 3.9 -0.8
v 2.7 3.9 -0.9
v 2.7 3.9 -3.1
v 2.7 3.9 -3.2
v 2.7 4 -0.8
v 2.7 4 -0.9
v 2.7 4 -3.1
v 2.7 4 -3.2
v 2.8 3.9 -0.9
v 2.8 3.9 -2.1
v 2.8 4 -0.9
v 2.8 4 -2.1
v 2.9 0 -0.6
v 2.9 0 -4.6
v 2.9 0.2 -0.8
v 2.9 0.2 -4.4
v 2.9 3.7 -0.8
v 2.9 3.7 -4.4
v 2.9 3.9 -0.6
v 2.9 3.9 -2.1
v 2.9 3.9 -4.5
v 2.9 3.9 -4.6
v 2.9 4 -2.1
v 2.9 4 -4.5
v -1.1 0 -0.6
v -1.1 3.9 -0.6
v -0.9 0.2 -0.6
v -0.9 3.7 -0.6
v -0.7 3.9 -0.6
v -0.7 4 -0.6
v 2.6 3.9 -0.6
v 2.6 4 -0.6
v 2.7 0.2 -0.6
v 2.7 3.7 -0.6
v 2.9 0 -0.6
v 2.9 3.9 -0.6
v -0.9 3.9 -0.7
v -0.9 4 -0.7
v -0.7 3.9 -0.7
v -0.7 4 -0.7
v -1.1 3.9 -0.8
v -1.1 4 -0.8
v -0.9 3.9 -0.8
v -0.9 4 -0.8
v 2.6 3.9 -0.8
v 2.6 4 -0.8
v 2.7 3.9 -0.8
v 2.7 4 -0.8
v 1.3 3.9 -0.9
v 1.3 4 -0.9
v 1.8 3.9 -0.9
v 1.8 4 -0.9
v 2.7 3.9 -0.9
v 2.7 4 -0.9
v 2.8 3.9 -0.9
v 2.8 4 -0.9
v -1.1 3.9 -1
v -1.1 4 -1
v -0.9 3.9 -1
v -0.9 4 -1
v -0.2 3.9 -1.3
v -0.2 4 -1.3
v -0.1 3.9 -1.3
v -0.1 4 -1.3
v -0.1 3.9 -1.6
v -0.1 4 -1.6
v 0 3.9 -1.6
v 0 4 -1.6
v 2.8 3.9 -2.1
v 2.8 4 -2.1
v 2.9 3.9 -2.1
v 2.9 4 -2.1
v 0.7 3.9 -3
v 0.7 4 -3
v 0.9 3.9 -3
v 0.9 4 -3
v -0.9 3.9 -3.2
v -0.9 4 -3.2
v -0.8 3.9 -3.2
v -0.8 4 -3.2
v 2.7 3.9 -3.2
v 2.7 4 -3.2
v 2.8 3.9 -3.2
v 2.8 4 -3.2
v 0.3 3.9 -3.4
v 0.3 4 -3.4
v 0.4 3.9 -3.4
v 0.4 4 -3.4
v 2.6 3.9 -3.4
v 2.6 4 -3.4
v 2.7 3.9 -3.4
v 2.7 4 -3.4
v 0.2 3.9 -3.5
v 0.2 4 -3.5
v 0.3 3.9 -3.5
v 0.3 4 -3.5
v 2.5 3.9 -3.5
v 2.5 4 -3.5
v 2.6 3.9 -3.5
v 2.6 4 -3.5
v -0.7 3.9 -3.7
v -0.7 4 -3.7
v -0.6 3.9 -3.7
v -0.6 4 -3.7
v -1 3.9 -4.4
v -1 4 -4.4
v -0.9 3.9 -4.4
v -0.9 4 -4.4
v 0.7 3.9 -4.4
v 0.7 4 -4.4
v 1.5 3.9 -4.4
v 1.5 4 -4.4
v 1.3 3.9 -0.8
v 1.3 4 -0.8
v 1.8 3.9 -0.8
v 1.8 4 -0.8
v -1.1 3.9 -0.9
v -1.1 4 -0.9
v -0.9 3.9 -0.9
v -0.9 4 -0.9
v -0.2 3.9 -1
v -0.2 4 -1
v -0.1 3.9 -1
v -0.1 4 -1
v -0.1 3.9 -1.3
v -0.1 4 -1.3
v 0 3.9 -1.3
v 0 4 -1.3
v 0.7 3.9 -2.8
v 0.7 4 -2.8
v 0.9 3.9 -2.8
v 0.9 4 -2.8
v -0.9 3.9 -3.1
v -0.9 4 -3.1
v -0.8 3.9 -3.1
v -0.8 4 -3.1
v -0.7 3.9 -3.1
v -0.7 4 -3.1
v -0.6 3.9 -3.1
v -0.6 4 -3.1
v 2.7 3.9 -3.1
v 2.7 4 -3.1
v 2.8 3.9 -3.1
v 2.8 4 -3.1
v 2.6 3.9 -3.2
v 2.6 4 -3.2
v 2.7 3.9 -3.2
v 2.7 4 -3.2
v 0.3 3.9 -3.3
v 0.3 4 -3.3
v 0.4 3.9 -3.3
v 0.4 4 -3.3
v 0.2 3.9 -3.4
v 0.2 4 -3.4
v 0.3 3.9 -3.4
v 0.3 4 -3.4
v 2.5 3.9 -3.4
v 2.5 4 -3.4
v 2.6 3.9 -3.4
v 2.6 4 -3.4
v -1 3.9 -4
v -1 4 -4
v -0.9 3.9 -4
v -0.9 4 -4
v 0.7 3.9 -4.3
v 0.7 4 -4.3
v 1.5 3.9 -4.3
v 1.5 4 -4.3
v 2.5 3.9 -4.4
v 2.5 4 -4.4
v 2.6 3.9 -4.4
v 2.6 4 -4.4
v 2.2 3.9 -4.5
v 2.2 4 -4.5
v 2.5 3.9 -4.5
v 2.5 4 -4.5
v 2.6 3.9 -4.5
v 2.6 4 -4.5
v 2.9 3.9 -4.5
v 2.9 4 -4.5
v -1.1 0 -4.6
v -1.1 4 -4.6
v -0.9 0.2 -4.6
v -0.9 3.7 -4.6
v 2.2 3.9 -4.6
v 2.2 4 -4.6
v 2.7 0.2 -4.6
v 2.7 3.7 -4.6
v 2.9 0 -4.6
v 2.9 3.9 -4.6
v -1.1 0 -0.6
v 2.9 0 -0.6
v -0.9 0 -0.8
v 2.7 0 -0.8
v -0.9 0 -4.4
v 2.7 0 -4.4
v -1.1 0 -4.6
v 2.9 0 -4.6
v -1.1 3.9 -0.6
v -0.7 3.9 -0.6
v 2.6 3.9 -0.6
v 2.9 3.9 -0.6
v -0.9 3.9 -0.7
v -0.7 3.9 -0.7
v -1.1 3.9 -0.8
v -0.9 3.9 -0.8
v 1.3 3.9 -0.8
v 1.8 3.9 -0.8
v 2.6 3.9 -0.8
v 2.7 3.9 -0.8
v -1.1 3.9 -0.9
v -0.9 3.9 -0.9
v 1.3 3.9 -0.9
v 1.8 3.9 -0.9
v 2.7 3.9 -0.9
v 2.8 3.9 -0.9
v -1.1 3.9 -1
v -0.9 3.9 -1
v -0.2 3.9 -1
v -0.1 3.9 -1
v -0.2 3.9 -1.3
v -0.1 3.9 -1.3
v 0 3.9 -1.3
v -0.1 3.9 -1.6
v 0 3.9 -1.6
v 2.8 3.9 -2.1
v 2.9 3.9 -2.1
v 0.7 3.9 -2.8
v 0.9 3.9 -2.8
v 0.7 3.9 -3
v 0.9 3.9 -3
v -0.9 3.9 -3.1
v -0.8 3.9 -3.1
v -0.7 3.9 -3.1
v -0.6 3.9 -3.1
v 2.7 3.9 -3.1
v 2.8 3.9 -3.1
v -0.9 3.9 -3.2
v -0.8 3.9 -3.2
v 2.6 3.9 -3.2
v 2.7 3.9 -3.2
v 2.8 3.9 -3.2
v 0.3 3.9 -3.3
v 0.4 3.9 -3.3
v 0.2 3.9 -3.4
v 0.3 3.9 -3.4
v 0.4 3.9 -3.4
v 2.5 3.9 -3.4
v 2.6 3.9 -3.4
v 2.7 3.9 -3.4
v 0.2 3.9 -3.5
v 0.3 3.9 -3.5
v 2.5 3.9 -3.5
v 2.6 3.9 -3.5
v -0.7 3.9 -3.7
v -0.6 3.9 -3.7
v -1 3.9 -4
v -0.9 3.9 -4
v 0.7 3.9 -4.3
v 1.5 3.9 -4.3
v -1 3.9 -4.4
v -0.9 3.9 -4.4
v 0.7 3.9 -4.4
v 1.5 3.9 -4.4
v 2.5 3.9 -4.4
v 2.6 3.9 -4.4
v 2.2 3.9 -4.5
v 2.5 3.9 -4.5
v 2.6 3.9 -4.5
v 2.9 3.9 -4.5
v 2.2 3.9 -4.6
v 2.9 3.9 -4.6
v -0.7 4 -0.6
v 2.6 4 -0.6
v -0.9 4 -0.7
v -0.7 4 -0.7
v -1.1 4 -0.8
v -0.9 4 -0.8
v 1.3 4 -0.8
v 1.8 4 -0.8
v 2.6 4 -0.8
v 2.7 4 -0.8
v -1.1 4 -0.9
v -0.9 4 -0.9
v -0.8 4 -0.9
v 1.3 4 -0.9
v 1.8 4 -0.9
v 2.6 4 -0.9
v 2.7 4 -0.9
v 2.8 4 -0.9
v -1.1 4 -1
v -0.9 4 -1
v -0.2 4 -1
v -0.1 4 -1
v -0.2 4 -1.3
v -0.1 4 -1.3
v 0 4 -1.3
v -0.1 4 -1.6
v 0 4 -1.6
v 2.8 4 -2.1
v 2.9 4 -2.1
v 0.7 4 -2.8
v 0.9 4 -2.8
v 0.7 4 -3
v 0.9 4 -3
v -0.9 4 -3.1
v -0.8 4 -3.1
v -0.7 4 -3.1
v -0.6 4 -3.1
v 2.7 4 -3.1
v 2.8 4 -3.1
v -0.9 4 -3.2
v -0.8 4 -3.2
v 2.6 4 -3.2
v 2.7 4 -3.2
v 2.8 4 -3.2
v 0.3 4 -3.3
v 0.4 4 -3.3
v 0.2 4 -3.4
v 0.3 4 -3.4
v 0.4 4 -3.4
v 2.5 4 -3.4
v 2.6 4 -3.4
v 2.7 4 -3.4
v 0.2 4 -3.5
v 0.3 4 -3.5
v 2.5 4 -3.5
v 2.6 4 -3.5
v -0.7 4 -3.7
v -0.6 4 -3.7
v -1 4 -4
v -0.9 4 -4
v -0.8 4 -4.3
v 0.7 4 -4.3
v 1.5 4 -4.3
v 2.6 4 -4.3
v -1 4 -4.4
v -0.9 4 -4.4
v 0.7 4 -4.4
v 1.5 4 -4.4
v 2.5 4 -4.4
v 2.6 4 -4.4
v 2.2 4 -4.5
v 2.5 4 -4.5
v 2.6 4 -4.5
v 2.9 4 -4.5
v -1.1 4 -4.6
v 2.2 4 -4.6

# faces
f 3/2/1 2/2/1 1/2/1
f 4/2/1 2/2/1 3/2/1
f 5/2/1 3/2/1 1/2/1
f 5/3/1 4/3/1 3/3/1
f 6/2/1 2/2/1 4/2/1
f 6/3/1 4/3/1 5/3/1
f 7/2/1 5/2/1 1/2/1
f 7/2/1 6/2/1 5/2/1
f 8/2/1 6/2/1 7/2/1
f 9/2/1 6/2/1 8/2/1
f 10/2/1 6/2/1 9/2/1
f 11/2/1 9/2/1 8/2/1
f 12/2/1 9/2/1 11/2/1
f 13/2/1 6/2/1 10/2/1
f 14/2/1 2/2/1 6/2/1
f 14/2/1 6/2/1 13/2/1
f 21/2/1 16/2/1 15/2/1
f 22/2/1 16/2/1 21/2/1
f 23/2/1 18/2/1 17/2/1
f 24/2/1 18/2/1 23/2/1
f 25/2/1 20/2/1 19/2/1
f 26/2/1 20/2/1 25/2/1
f 29/3/1 28/3/1 27/3/1
f 30/3/1 28/3/1 29/3/1
f 33/2/1 32/2/1 31/2/1
f 34/2/1 32/2/1 33/2/1
f 37/3/1 36/3/1 35/3/1
f 38/3/1 36/3/1 37/3/1
f 41/3/1 40/3/1 39/3/1
f 42/3/1 40/3/1 41/3/1
f 45/3/1 44/3/1 43/3/1
f 46/3/1 44/3/1 45/3/1
f 49/3/1 48/3/1 47/3/1
f 50/3/1 48/3/1 49/3/1
f 53/3/1 52/3/1 51/3/1
f 54/3/1 52/3/1 53/3/1
f 57/3/1 56/3/1 55/3/1
f 58/3/1 56/3/1 57/3/1
f 61/2/1 60/2/1 59/2/1
f 62/2/1 60/2/1 61/2/1
f 65/2/1 64/2/1 63/2/1
f 66/2/1 64/2/1 65/2/1
f 71/2/1 68/2/1 67/2/1
f 72/2/1 68/2/1 71/2/1
f 73/2/1 70/2/1 69/2/1
f 74/2/1 70/2/1 73/2/1
f 77/2/1 76/2/1 75/2/1
f 78/2/1 76/2/1 77/2/1
f 81/2/1 80/2/1 79/2/1
f 82/2/1 80/2/1 81/2/1
f 83/2/2 84/2/2 85/2/2
f 85/2/2 84/2/2 86/2/2
f 87/2/2 88/2/2 89/2/2
f 89/2/2 88/2/2 90/2/2
f 91/3/2 92/3/2 93/3/2
f 93/3/2 92/3/2 94/3/2
f 95/3/2 96/3/2 97/3/2
f 97/3/2 96/3/2 98/3/2
f 99/3/2 100/3/2 101/3/2
f 101/3/2 100/3/2 102/3/2
f 103/3/2 104/3/2 105/3/2
f 105/3/2 104/3/2 106/3/2
f 107/3/2 108/3/2 109/3/2
f 109/3/2 108/3/2 110/3/2
f 111/3/2 112/3/2 115/3/2
f 115/3/2 112/3/2 116/3/2
f 113/2/2 114/2/2 117/2/2
f 117/2/2 114/2/2 118/2/2
f 119/2/2 120/2/2 121/2/2
f 121/2/2 120/2/2 122/2/2
f 123/2/2 124/2/2 125/2/2
f 125/2/2 124/2/2 126/2/2
f 127/3/2 128/3/2 131/3/2
f 131/3/2 128/3/2 132/3/2
f 129/2/2 130/2/2 133/2/2
f 133/2/2 130/2/2 134/2/2
f 135/2/2 136/2/2 139/2/2
f 139/2/2 136/2/2 140/2/2
f 137/3/2 138/3/2 141/3/2
f 141/3/2 138/3/2 142/3/2
f 143/2/2 144/2/2 147/2/2
f 147/2/2 144/2/2 148/2/2
f 145/2/2 146/2/2 149/2/2
f 149/2/2 146/2/2 150/2/2
f 151/2/2 152/2/2 153/2/2
f 153/2/2 152/2/2 154/2/2
f 155/2/2 156/2/2 157/2/2
f 157/2/2 156/2/2 158/2/2
f 155/2/2 157/2/2 159/2/2
f 157/3/2 158/3/2 159/3/2
f 158/2/2 156/2/2 160/2/2
f 159/3/2 158/3/2 160/3/2
f 155/2/2 159/2/2 161/2/2
f 159/2/2 160/2/2 161/2/2
f 161/2/2 160/2/2 162/2/2
f 160/2/2 156/2/2 163/2/2
f 162/2/2 160/2/2 163/2/2
f 163/2/2 156/2/2 164/2/2
f 162/2/2 163/2/2 165/2/2
f 165/2/2 163/2/2 166/2/2
f 169/2/3 168/2/3 167/2/3
f 170/2/3 168/2/3 169/2/3
f 171/2/3 168/2/3 170/2/3
f 173/2/3 171/2/3 170/2/3
f 173/2/3 172/2/3 171/2/3
f 174/2/3 172/2/3 173/2/3
f 175/2/3 169/2/3 167/2/3
f 175/3/3 170/3/3 169/3/3
f 176/2/3 173/2/3 170/2/3
f 176/3/3 170/3/3 175/3/3
f 177/2/3 175/2/3 167/2/3
f 177/2/3 176/2/3 175/2/3
f 178/2/3 173/2/3 176/2/3
f 178/2/3 176/2/3 177/2/3
f 181/2/3 180/2/3 179/2/3
f 182/2/3 180/2/3 181/2/3
f 185/2/3 184/2/3 183/2/3
f 186/2/3 184/2/3 185/2/3
f 189/2/3 188/2/3 187/2/3
f 190/2/3 188/2/3 189/2/3
f 193/3/3 192/3/3 191/3/3
f 194/3/3 192/3/3 193/3/3
f 197/2/3 196/2/3 195/2/3
f 198/2/3 196/2/3 197/2/3
f 201/2/3 200/2/3 199/2/3
f 202/2/3 200/2/3 201/2/3
f 205/3/3 204/3/3 203/3/3
f 206/3/3 204/3/3 205/3/3
f 209/3/3 208/3/3 207/3/3
f 210/3/3 208/3/3 209/3/3
f 213/2/3 212/2/3 211/2/3
f 214/2/3 212/2/3 213/2/3
f 217/3/3 216/3/3 215/3/3
f 218/3/3 216/3/3 217/3/3
f 221/2/3 220/2/3 219/2/3
f 222/2/3 220/2/3 221/2/3
f 225/2/3 224/2/3 223/2/3
f 226/2/3 224/2/3 225/2/3
f 229/3/3 228/3/3 227/3/3
f 230/3/3 228/3/3 229/3/3
f 233/2/3 232/2/3 231/2/3
f 234/2/3 232/2/3 233/2/3
f 237/3/3 236/3/3 235/3/3
f 238/3/3 236/3/3 237/3/3
f 241/3/3 240/3/3 239/3/3
f 242/3/3 240/3/3 241/3/3
f 245/3/3 244/3/3 243/3/3
f 246/3/3 244/3/3 245/3/3
f 249/2/3 248/2/3 247/2/3
f 250/2/3 248/2/3 249/2/3
f 253/2/3 252/2/3 251/2/3
f 254/2/3 252/2/3 253/2/3
f 255/2/4 256/2/4 257/2/4
f 257/2/4 256/2/4 258/2/4
f 259/2/4 260/2/4 261/2/4
f 261/2/4 260/2/4 262/2/4
f 263/3/4 264/3/4 265/3/4
f 265/3/4 264/3/4 266/3/4
f 267/3/4 268/3/4 269/3/4
f 269/3/4 268/3/4 270/3/4
f 271/3/4 272/3/4 273/3/4
f 273/3/4 272/3/4 274/3/4
f 275/2/4 276/2/4 277/2/4
f 277/2/4 276/2/4 278/2/4
f 279/3/4 280/3/4 281/3/4
f 281/3/4 280/3/4 282/3/4
f 283/2/4 284/2/4 285/2/4
f 285/2/4 284/2/4 286/2/4
f 287/2/4 288/2/4 289/2/4
f 289/2/4 288/2/4 290/2/4
f 291/3/4 292/3/4 293/3/4
f 293/3/4 292/3/4 294/3/4
f 295/3/4 296/3/4 297/3/4
f 297/3/4 296/3/4 298/3/4
f 299/3/4 300/3/4 301/3/4
f 301/3/4 300/3/4 302/3/4
f 303/2/4 304/2/4 305/2/4
f 305/2/4 304/2/4 306/2/4
f 307/3/4 308/3/4 309/3/4
f 309/3/4 308/3/4 310/3/4
f 311/2/4 312/2/4 313/2/4
f 313/2/4 312/2/4 314/2/4
f 315/2/4 316/2/4 317/2/4
f 317/2/4 316/2/4 318/2/4
f 319/2/4 320/2/4 321/2/4
f 321/2/4 320/2/4 322/2/4
f 323/2/4 324/2/4 325/2/4
f 325/2/4 324/2/4 326/2/4
f 326/2/4 324/2/4 327/2/4
f 327/2/4 324/2/4 328/2/4
f 323/2/4 325/2/4 329/2/4
f 325/3/4 326/3/4 329/3/4
f 326/2/4 327/2/4 330/2/4
f 329/3/4 326/3/4 330/3/4
f 323/2/4 329/2/4 331/2/4
f 329/2/4 330/2/4 331/2/4
f 330/2/4 327/2/4 332/2/4
f 331/2/4 330/2/4 332/2/4
f 335/2/5 334/2/5 333/2/5
f 336/2/5 334/2/5 335/2/5
f 337/2/5 335/2/5 333/2/5
f 337/3/5 336/3/5 335/3/5
f 338/2/5 334/2/5 336/2/5
f 338/3/5 336/3/5 337/3/5
f 339/2/5 337/2/5 333/2/5
f 339/2/5 338/2/5 337/2/5
f 340/2/5 334/2/5 338/2/5
f 340/2/5 338/2/5 339/2/5
f 341/2/6 342/2/6 345/2/6
f 345/2/6 342/2/6 346/2/6
f 341/2/6 345/2/6 347/2/6
f 347/2/6 345/2/6 348/2/6
f 343/2/6 344/2/6 351/2/6
f 351/2/6 344/2/6 352/2/6
f 349/2/6 350/2/6 355/2/6
f 355/2/6 350/2/6 356/2/6
f 352/2/6 344/2/6 357/2/6
f 357/2/6 344/2/6 358/2/6
f 353/2/6 354/2/6 359/2/6
f 359/2/6 354/2/6 360/2/6
f 361/2/6 362/2/6 363/2/6
f 363/2/6 362/2/6 364/2/6
f 364/2/6 365/2/6 366/2/6
f 366/2/6 365/2/6 367/2/6
f 358/2/6 344/2/6 368/2/6
f 368/2/6 344/2/6 369/2/6
f 370/2/6 371/2/6 372/2/6
f 372/2/6 371/2/6 373/2/6
f 374/2/6 375/2/6 380/2/6
f 380/2/6 375/2/6 381/2/6
f 378/2/6 379/2/6 383/2/6
f 383/2/6 379/2/6 384/2/6
f 385/2/6 386/2/6 388/2/6
f 388/2/6 386/2/6 389/2/6
f 382/2/6 383/2/6 391/2/6
f 391/2/6 383/2/6 392/2/6
f 387/2/6 388/2/6 393/2/6
f 393/2/6 388/2/6 394/2/6
f 390/2/6 391/2/6 395/2/6
f 395/2/6 391/2/6 396/2/6
f 376/2/6 377/2/6 397/2/6
f 397/2/6 377/2/6 398/2/6
f 399/2/6 400/2/6 403/2/6
f 403/2/6 400/2/6 404/2/6
f 401/2/6 402/2/6 405/2/6
f 405/2/6 402/2/6 406/2/6
f 407/2/6 408/2/6 410/2/6
f 410/2/6 408/2/6 411/2/6
f 410/2/6 411/2/6 413/2/6
f 411/2/6 412/2/6 413/2/6
f 409/2/6 410/2/6 413/2/6
f 413/2/6 412/2/6 414/2/6
f 415/2/6 416/2/6 418/2/6
f 417/2/6 418/2/6 420/2/6
f 418/2/6 416/2/6 421/2/6
f 420/2/6 418/2/6 421/2/6
f 421/2/6 416/2/6 422/2/6
f 422/2/6 416/2/6 423/2/6
f 419/2/6 420/2/6 425/2/6
f 420/2/6 421/2/6 425/2/6
f 425/2/6 421/2/6 426/2/6
f 426/2/6 421/2/6 427/2/6
f 427/2/6 421/2/6 428/2/6
f 423/2/6 424/2/6 429/2/6
f 422/2/6 423/2/6 429/2/6
f 429/2/6 424/2/6 430/2/6
f 430/2/6 424/2/6 431/2/6
f 426/2/6 427/2/6 434/2/6
f 427/3/6 428/3/6 435/3/6
f 428/3/6 429/3/6 435/3/6
f 429/3/6 430/3/6 435/3/6
f 435/3/6 430/3/6 436/3/6
f 427/3/6 435/3/6 437/3/6
f 436/3/6 430/3/6 438/3/6
f 438/3/6 430/3/6 439/3/6
f 437/3/6 438/3/6 440/3/6
f 439/3/6 430/3/6 441/3/6
f 430/2/6 431/2/6 442/2/6
f 431/2/6 432/2/6 442/2/6
f 440/3/6 441/3/6 444/3/6
f 441/3/6 430/3/6 444/3/6
f 444/3/6 430/3/6 445/3/6
f 440/3/6 444/3/6 446/3/6
f 445/3/6 430/3/6 447/3/6
f 433/2/6 434/2/6 448/2/6
f 434/2/6 427/2/6 448/2/6
f 446/3/6 447/3/6 449/3/6
f 448/2/6 427/2/6 449/2/6
f 427/3/6 437/3/6 449/3/6
f 437/3/6 440/3/6 449/3/6
f 440/3/6 446/3/6 449/3/6
f 449/3/6 447/3/6 450/3/6
f 450/3/6 447/3/6 451/3/6
f 442/2/6 443/2/6 452/2/6
f 430/2/6 442/2/6 452/2/6
f 452/2/6 443/2/6 453/2/6
f 433/2/6 448/2/6 454/2/6
f 449/3/6 450/3/6 455/3/6
f 451/3/6 447/3/6 456/3/6
f 430/2/6 452/2/6 456/2/6
f 447/3/6 430/3/6 456/3/6
f 456/2/6 452/2/6 457/2/6
f 453/2/6 443/2/6 458/2/6
f 451/3/6 456/3/6 459/3/6
f 459/3/6 456/3/6 460/3/6
f 451/3/6 459/3/6 461/3/6
f 461/3/6 459/3/6 462/3/6
f 460/3/6 456/3/6 463/3/6
f 463/3/6 456/3/6 464/3/6
f 464/3/6 456/3/6 465/3/6
f 457/2/6 458/2/6 466/2/6
f 451/3/6 461/3/6 467/3/6
f 462/3/6 463/3/6 468/3/6
f 463/3/6 464/3/6 468/3/6
f 468/3/6 464/3/6 469/3/6
f 465/2/6 466/2/6 470/2/6
f 455/3/6 450/3/6 471/3/6
f 468/3/6 469/3/6 472/3/6
f 469/3/6 470/3/6 472/3/6
f 451/3/6 467/3/6 472/3/6
f 467/3/6 468/3/6 472/3/6
f 454/2/6 455/2/6 473/2/6
f 433/2/6 454/2/6 473/2/6
f 473/2/6 455/2/6 474/2/6
f 455/3/6 471/3/6 475/3/6
f 474/2/6 455/2/6 475/2/6
f 471/3/6 472/3/6 475/3/6
f 472/3/6 470/3/6 476/3/6
f 475/3/6 472/3/6 476/3/6
f 476/3/6 470/3/6 477/3/6
f 470/2/6 466/2/6 478/2/6
f 477/3/6 470/3/6 478/3/6
f 433/2/6 473/2/6 479/2/6
f 474/2/6 475/2/6 480/2/6
f 475/2/6 476/2/6 480/2/6
f 480/2/6 476/2/6 481/2/6
f 477/2/6 478/2/6 482/2/6
f 482/2/6 478/2/6 483/2/6
f 478/2/6 466/2/6 484/2/6
f 483/2/6 478/2/6 484/2/6
f 482/2/6 483/2/6 485/2/6
f 480/2/6 481/2/6 485/2/6
f 481/2/6 482/2/6 485/2/6
f 479/2/6 480/2/6 485/2/6
f 485/2/6 483/2/6 486/2/6
f 484/2/6 466/2/6 487/2/6
f 458/2/6 443/2/6 488/2/6
f 487/2/6 466/2/6 488/2/6
f 466/2/6 458/2/6 488/2/6
f 433/2/6 479/2/6 489/2/6
f 479/2/6 485/2/6 489/2/6
f 489/2/6 485/2/6 490/2/6
