# MagicaVoxel @ Ephtracy

# group
o 

# material
mtllib escalera.mtl
usemtl palette

# normals
vn -1 0 0
vn 1 0 0
vn 0 0 1
vn 0 0 -1
vn 0 -1 0
vn 0 1 0

# texcoords
vt 0.537109 0.5
vt 0.927734 0.5
vt 0.935547 0.5

# verts
v -1.1 0 -0.6
v -1.1 0 -4.6
v -1.1 0.2 -0.8
v -1.1 0.2 -4.4
v -1.1 1.2 -0.6
v -1.1 1.2 -0.8
v -1.1 1.2 -1.1
v -1.1 1.6 -1.1
v -1.1 1.6 -1.6
v -1.1 2 -1.6
v -1.1 2 -2.1
v -1.1 2.4 -2.1
v -1.1 2.4 -2.6
v -1.1 2.8 -2.6
v -1.1 2.8 -3.1
v -1.1 3.2 -3.1
v -1.1 3.2 -3.6
v -1.1 3.6 -3.6
v -1.1 3.6 -4.1
v -1.1 3.7 -4.1
v -1.1 3.7 -4.4
v -1.1 4 -4.1
v -1.1 4 -4.6
v -0.9 3.9 -4.1
v -0.9 3.9 -4.4
v -0.9 4 -4.1
v -0.9 4 -4.4
v 1.5 3.9 -4.3
v 1.5 3.9 -4.4
v 1.5 4 -4.3
v 1.5 4 -4.4
v 2.6 3.9 -4.4
v 2.6 3.9 -4.5
v 2.6 4 -4.4
v 2.6 4 -4.5
v -1 3.9 -4.1
v -1 3.9 -4.4
v -1 4 -4.1
v -1 4 -4.4
v 0.7 3.9 -4.3
v 0.7 3.9 -4.4
v 0.7 4 -4.3
v 0.7 4 -4.4
v 2.2 3.9 -4.5
v 2.2 3.9 -4.6
v 2.2 4 -4.5
v 2.2 4 -4.6
v 2.5 3.9 -4.4
v 2.5 3.9 -4.5
v 2.5 4 -4.4
v 2.5 4 -4.5
v 2.8 2.9 -3.1
v 2.8 2.9 -3.6
v 2.8 3.2 -3.1
v 2.8 3.2 -3.6
v 2.9 0 -0.6
v 2.9 0 -4.6
v 2.9 0.2 -0.8
v 2.9 0.2 -4.4
v 2.9 1.2 -0.6
v 2.9 1.2 -0.8
v 2.9 1.2 -1.1
v 2.9 1.6 -1.1
v 2.9 1.6 -1.6
v 2.9 2 -1.6
v 2.9 2 -2.1
v 2.9 2.4 -2.1
v 2.9 2.4 -2.6
v 2.9 2.8 -2.6
v 2.9 2.8 -3.1
v 2.9 2.9 -3.1
v 2.9 2.9 -3.6
v 2.9 3.6 -3.6
v 2.9 3.6 -4.1
v 2.9 3.7 -4.1
v 2.9 3.7 -4.4
v 2.9 3.9 -4.5
v 2.9 3.9 -4.6
v 2.9 4 -4.1
v 2.9 4 -4.5
v -1.1 0 -0.6
v -1.1 1.2 -0.6
v -0.9 0.2 -0.6
v -0.9 1.2 -0.6
v 2.7 0.2 -0.6
v 2.7 1.2 -0.6
v 2.9 0 -0.6
v 2.9 1.2 -0.6
v -1.1 1.2 -1.1
v -1.1 1.6 -1.1
v 2.9 1.2 -1.1
v 2.9 1.6 -1.1
v -1.1 1.6 -1.6
v -1.1 2 -1.6
v 2.9 1.6 -1.6
v 2.9 2 -1.6
v -1.1 2 -2.1
v -1.1 2.4 -2.1
v 2.9 2 -2.1
v 2.9 2.4 -2.1
v -1.1 2.4 -2.6
v -1.1 2.8 -2.6
v 2.9 2.4 -2.6
v 2.9 2.8 -2.6
v -1.1 2.8 -3.1
v -1.1 3.2 -3.1
v 2.8 2.9 -3.1
v 2.8 3.2 -3.1
v 2.9 2.8 -3.1
v 2.9 2.9 -3.1
v -1.1 3.2 -3.6
v -1.1 3.6 -3.6
v 2.8 2.9 -3.6
v 2.8 3.2 -3.6
v 2.9 2.9 -3.6
v 2.9 3.6 -3.6
v -1.1 3.6 -4.1
v -1.1 3.7 -4.1
v -1.1 4 -4.1
v -1 3.7 -4.1
v -1 3.8 -4.1
v -1 3.9 -4.1
v -1 4 -4.1
v -0.9 3.8 -4.1
v -0.9 3.9 -4.1
v -0.9 4 -4.1
v -0.8 3.9 -4.1
v -0.8 4 -4.1
v 2.6 3.8 -4.1
v 2.6 4 -4.1
v 2.8 3.7 -4.1
v 2.8 3.8 -4.1
v 2.9 3.6 -4.1
v 2.9 3.7 -4.1
v 2.9 4 -4.1
v -1 3.9 -4.4
v -1 4 -4.4
v -0.9 3.9 -4.4
v -0.9 4 -4.4
v 0.7 3.9 -4.4
v 0.7 4 -4.4
v 1.5 3.9 -4.4
v 1.5 4 -4.4
v 0.7 3.9 -4.3
v 0.7 4 -4.3
v 1.5 3.9 -4.3
v 1.5 4 -4.3
v 2.5 3.9 -4.4
v 2.5 4 -4.4
v 2.6 3.9 -4.4
v 2.6 4 -4.4
v 2.2 3.9 -4.5
v 2.2 4 -4.5
v 2.5 3.9 -4.5
v 2.5 4 -4.5
v 2.6 3.9 -4.5
v 2.6 4 -4.5
v 2.9 3.9 -4.5
v 2.9 4 -4.5
v -1.1 0 -4.6
v -1.1 4 -4.6
v -0.9 0.2 -4.6
v -0.9 3.7 -4.6
v 2.2 3.9 -4.6
v 2.2 4 -4.6
v 2.7 0.2 -4.6
v 2.7 3.7 -4.6
v 2.9 0 -4.6
v 2.9 3.9 -4.6
v -1.1 0 -0.6
v 2.9 0 -0.6
v -1 0 -0.7
v 2.8 0 -0.7
v -1 0 -1.1
v -0.9 0 -1.1
v 2.7 0 -1.1
v 2.8 0 -1.1
v -0.9 0 -4.4
v 2.7 0 -4.4
v -1.1 0 -4.6
v 2.9 0 -4.6
v -1.1 1.2 -0.6
v -0.9 1.2 -0.6
v 2.7 1.2 -0.6
v 2.9 1.2 -0.6
v -1 1.2 -0.7
v -0.9 1.2 -0.7
v 2.7 1.2 -0.7
v 2.8 1.2 -0.7
v -1.1 1.2 -0.8
v -1 1.2 -0.8
v 2.8 1.2 -0.8
v 2.9 1.2 -0.8
v -1.1 1.2 -1.1
v 2.9 1.2 -1.1
v -1.1 1.6 -1.1
v 2.9 1.6 -1.1
v -1.1 1.6 -1.6
v 2.9 1.6 -1.6
v -1.1 2 -1.6
v 2.9 2 -1.6
v -1.1 2 -2.1
v 2.9 2 -2.1
v -1.1 2.4 -2.1
v 2.9 2.4 -2.1
v -1.1 2.4 -2.6
v 2.9 2.4 -2.6
v -1.1 2.8 -2.6
v 2.9 2.8 -2.6
v -1.1 2.8 -3.1
v 2.9 2.8 -3.1
v 2.8 2.9 -3.1
v 2.9 2.9 -3.1
v 2.8 2.9 -3.6
v 2.9 2.9 -3.6
v -1.1 3.2 -3.1
v 2.8 3.2 -3.1
v -1.1 3.2 -3.6
v 2.8 3.2 -3.6
v -1.1 3.6 -3.6
v 2.9 3.6 -3.6
v -1.1 3.6 -4.1
v 2.9 3.6 -4.1
v -1 3.9 -4.1
v -0.9 3.9 -4.1
v 0.7 3.9 -4.3
v 1.5 3.9 -4.3
v -1 3.9 -4.4
v -0.9 3.9 -4.4
v 0.7 3.9 -4.4
v 1.5 3.9 -4.4
v 2.5 3.9 -4.4
v 2.6 3.9 -4.4
v 2.2 3.9 -4.5
v 2.5 3.9 -4.5
v 2.6 3.9 -4.5
v 2.9 3.9 -4.5
v 2.2 3.9 -4.6
v 2.9 3.9 -4.6
v -1.1 4 -4.1
v -1 4 -4.1
v -0.9 4 -4.1
v -0.8 4 -4.1
v 2.6 4 -4.1
v 2.9 4 -4.1
v -0.8 4 -4.3
v 0.7 4 -4.3
v 1.5 4 -4.3
v 2.6 4 -4.3
v -1 4 -4.4
v -0.9 4 -4.4
v 0.7 4 -4.4
v 1.5 4 -4.4
v 2.5 4 -4.4
v 2.6 4 -4.4
v 2.2 4 -4.5
v 2.5 4 -4.5
v 2.6 4 -4.5
v 2.9 4 -4.5
v -1.1 4 -4.6
v 2.2 4 -4.6

# faces
f 3/2/1 2/2/1 1/2/1
f 4/2/1 2/2/1 3/2/1
f 5/2/1 3/2/1 1/2/1
f 6/3/1 4/3/1 3/3/1
f 6/2/1 3/2/1 5/2/1
f 7/3/1 4/3/1 6/3/1
f 8/3/1 4/3/1 7/3/1
f 9/3/1 4/3/1 8/3/1
f 10/3/1 4/3/1 9/3/1
f 11/3/1 4/3/1 10/3/1
f 12/3/1 4/3/1 11/3/1
f 13/3/1 4/3/1 12/3/1
f 14/3/1 4/3/1 13/3/1
f 15/3/1 4/3/1 14/3/1
f 16/3/1 4/3/1 15/3/1
f 17/3/1 4/3/1 16/3/1
f 18/3/1 4/3/1 17/3/1
f 19/3/1 4/3/1 18/3/1
f 20/3/1 4/3/1 19/3/1
f 21/2/1 2/2/1 4/2/1
f 21/3/1 4/3/1 20/3/1
f 22/2/1 21/2/1 20/2/1
f 23/2/1 2/2/1 21/2/1
f 23/2/1 21/2/1 22/2/1
f 26/2/1 25/2/1 24/2/1
f 27/2/1 25/2/1 26/2/1
f 30/2/1 29/2/1 28/2/1
f 31/2/1 29/2/1 30/2/1
f 34/2/1 33/2/1 32/2/1
f 35/2/1 33/2/1 34/2/1
f 36/2/2 37/2/2 38/2/2
f 38/2/2 37/2/2 39/2/2
f 40/2/2 41/2/2 42/2/2
f 42/2/2 41/2/2 43/2/2
f 44/2/2 45/2/2 46/2/2
f 46/2/2 45/2/2 47/2/2
f 48/2/2 49/2/2 50/2/2
f 50/2/2 49/2/2 51/2/2
f 52/3/2 53/3/2 54/3/2
f 54/3/2 53/3/2 55/3/2
f 56/2/2 57/2/2 58/2/2
f 58/2/2 57/2/2 59/2/2
f 56/2/2 58/2/2 60/2/2
f 58/3/2 59/3/2 61/3/2
f 60/2/2 58/2/2 61/2/2
f 61/3/2 59/3/2 62/3/2
f 62/3/2 59/3/2 63/3/2
f 63/3/2 59/3/2 64/3/2
f 64/3/2 59/3/2 65/3/2
f 65/3/2 59/3/2 66/3/2
f 66/3/2 59/3/2 67/3/2
f 67/3/2 59/3/2 68/3/2
f 68/3/2 59/3/2 69/3/2
f 69/3/2 59/3/2 70/3/2
f 70/3/2 59/3/2 71/3/2
f 71/3/2 59/3/2 72/3/2
f 72/3/2 59/3/2 73/3/2
f 73/3/2 59/3/2 74/3/2
f 74/3/2 59/3/2 75/3/2
f 59/2/2 57/2/2 76/2/2
f 75/3/2 59/3/2 76/3/2
f 75/2/2 76/2/2 77/2/2
f 76/2/2 57/2/2 77/2/2
f 77/2/2 57/2/2 78/2/2
f 75/2/2 77/2/2 79/2/2
f 79/2/2 77/2/2 80/2/2
f 83/2/3 82/2/3 81/2/3
f 84/2/3 82/2/3 83/2/3
f 85/2/3 83/2/3 81/2/3
f 85/3/3 84/3/3 83/3/3
f 86/3/3 84/3/3 85/3/3
f 87/2/3 85/2/3 81/2/3
f 87/2/3 86/2/3 85/2/3
f 88/2/3 86/2/3 87/2/3
f 91/3/3 90/3/3 89/3/3
f 92/3/3 90/3/3 91/3/3
f 95/3/3 94/3/3 93/3/3
f 96/3/3 94/3/3 95/3/3
f 99/3/3 98/3/3 97/3/3
f 100/3/3 98/3/3 99/3/3
f 103/3/3 102/3/3 101/3/3
f 104/3/3 102/3/3 103/3/3
f 107/3/3 106/3/3 105/3/3
f 108/3/3 106/3/3 107/3/3
f 109/3/3 107/3/3 105/3/3
f 110/3/3 107/3/3 109/3/3
f 114/3/3 112/3/3 111/3/3
f 115/3/3 114/3/3 113/3/3
f 116/3/3 112/3/3 114/3/3
f 116/3/3 114/3/3 115/3/3
f 120/3/3 118/3/3 117/3/3
f 120/2/3 119/2/3 118/2/3
f 121/2/3 119/2/3 120/2/3
f 122/2/3 119/2/3 121/2/3
f 123/2/3 119/2/3 122/2/3
f 124/3/3 121/3/3 120/3/3
f 124/2/3 122/2/3 121/2/3
f 125/2/3 122/2/3 124/2/3
f 127/3/3 125/3/3 124/3/3
f 127/2/3 126/2/3 125/2/3
f 128/2/3 126/2/3 127/2/3
f 129/3/3 124/3/3 120/3/3
f 129/3/3 127/3/3 124/3/3
f 129/3/3 128/3/3 127/3/3
f 130/3/3 128/3/3 129/3/3
f 131/3/3 120/3/3 117/3/3
f 131/3/3 129/3/3 120/3/3
f 132/2/3 130/2/3 129/2/3
f 132/3/3 129/3/3 131/3/3
f 133/3/3 131/3/3 117/3/3
f 134/2/3 132/2/3 131/2/3
f 134/3/3 131/3/3 133/3/3
f 135/2/3 130/2/3 132/2/3
f 135/2/3 132/2/3 134/2/3
f 138/2/3 137/2/3 136/2/3
f 139/2/3 137/2/3 138/2/3
f 142/2/3 141/2/3 140/2/3
f 143/2/3 141/2/3 142/2/3
f 144/3/4 145/3/4 146/3/4
f 146/3/4 145/3/4 147/3/4
f 148/2/4 149/2/4 150/2/4
f 150/2/4 149/2/4 151/2/4
f 152/2/4 153/2/4 154/2/4
f 154/2/4 153/2/4 155/2/4
f 156/2/4 157/2/4 158/2/4
f 158/2/4 157/2/4 159/2/4
f 160/2/4 161/2/4 162/2/4
f 162/2/4 161/2/4 163/2/4
f 163/2/4 161/2/4 164/2/4
f 164/2/4 161/2/4 165/2/4
f 160/2/4 162/2/4 166/2/4
f 162/3/4 163/3/4 166/3/4
f 163/2/4 164/2/4 167/2/4
f 166/3/4 163/3/4 167/3/4
f 160/2/4 166/2/4 168/2/4
f 166/2/4 167/2/4 168/2/4
f 167/2/4 164/2/4 169/2/4
f 168/2/4 167/2/4 169/2/4
f 172/2/5 171/2/5 170/2/5
f 173/2/5 171/2/5 172/2/5
f 174/2/5 172/2/5 170/2/5
f 174/3/5 173/3/5 172/3/5
f 175/3/5 173/3/5 174/3/5
f 176/3/5 173/3/5 175/3/5
f 177/2/5 171/2/5 173/2/5
f 177/3/5 173/3/5 176/3/5
f 178/3/5 176/3/5 175/3/5
f 178/2/5 175/2/5 174/2/5
f 179/2/5 177/2/5 176/2/5
f 179/3/5 176/3/5 178/3/5
f 180/2/5 174/2/5 170/2/5
f 180/2/5 178/2/5 174/2/5
f 180/2/5 179/2/5 178/2/5
f 181/2/5 171/2/5 177/2/5
f 181/2/5 179/2/5 180/2/5
f 181/2/5 177/2/5 179/2/5
f 182/2/6 183/2/6 186/2/6
f 183/3/6 184/3/6 187/3/6
f 186/2/6 183/2/6 187/2/6
f 184/2/6 185/2/6 188/2/6
f 187/3/6 184/3/6 188/3/6
f 188/2/6 185/2/6 189/2/6
f 182/2/6 186/2/6 190/2/6
f 186/3/6 187/3/6 191/3/6
f 190/2/6 186/2/6 191/2/6
f 187/3/6 188/3/6 191/3/6
f 188/3/6 189/3/6 191/3/6
f 189/2/6 185/2/6 192/2/6
f 191/3/6 189/3/6 192/3/6
f 192/2/6 185/2/6 193/2/6
f 190/3/6 191/3/6 194/3/6
f 191/3/6 192/3/6 194/3/6
f 192/3/6 193/3/6 194/3/6
f 194/3/6 193/3/6 195/3/6
f 196/3/6 197/3/6 198/3/6
f 198/3/6 197/3/6 199/3/6
f 200/3/6 201/3/6 202/3/6
f 202/3/6 201/3/6 203/3/6
f 204/3/6 205/3/6 206/3/6
f 206/3/6 205/3/6 207/3/6
f 208/3/6 209/3/6 210/3/6
f 210/3/6 209/3/6 211/3/6
f 212/3/6 213/3/6 214/3/6
f 214/3/6 213/3/6 215/3/6
f 216/3/6 217/3/6 218/3/6
f 218/3/6 217/3/6 219/3/6
f 220/3/6 221/3/6 222/3/6
f 222/3/6 221/3/6 223/3/6
f 224/2/6 225/2/6 228/2/6
f 228/2/6 225/2/6 229/2/6
f 226/2/6 227/2/6 230/2/6
f 230/2/6 227/2/6 231/2/6
f 232/2/6 233/2/6 235/2/6
f 235/2/6 233/2/6 236/2/6
f 234/2/6 235/2/6 238/2/6
f 236/2/6 237/2/6 238/2/6
f 235/2/6 236/2/6 238/2/6
f 238/2/6 237/2/6 239/2/6
f 242/2/6 243/2/6 246/2/6
f 243/3/6 244/3/6 246/3/6
f 246/3/6 244/3/6 247/3/6
f 247/3/6 244/3/6 248/3/6
f 244/2/6 245/2/6 249/2/6
f 248/3/6 244/3/6 249/3/6
f 240/2/6 241/2/6 250/2/6
f 242/2/6 246/2/6 251/2/6
f 246/2/6 247/2/6 251/2/6
f 251/2/6 247/2/6 252/2/6
f 248/2/6 249/2/6 253/2/6
f 253/2/6 249/2/6 254/2/6
f 249/2/6 245/2/6 255/2/6
f 254/2/6 249/2/6 255/2/6
f 253/2/6 254/2/6 256/2/6
f 251/2/6 252/2/6 256/2/6
f 252/2/6 253/2/6 256/2/6
f 250/2/6 251/2/6 256/2/6
f 256/2/6 254/2/6 257/2/6
f 255/2/6 245/2/6 258/2/6
f 258/2/6 245/2/6 259/2/6
f 240/2/6 250/2/6 260/2/6
f 250/2/6 256/2/6 260/2/6
f 260/2/6 256/2/6 261/2/6
